# xmcd
#
# Track frame offsets: 
#        150
#        32482
#        51563
#        83461
#        99564
#        123640
#        142405
#        164479
#        182045
#        211745
#        229248
#        257513
#        283633
#        309685
#        332887
#
# Disc length: 4705 seconds
#
# Revision: 1
# Processed by: cddbd v1.5.2PL0 Copyright (c) Steve Scherf et al.
# Submitted via: ExactAudioCopy v0.99pb4
#
DISCID=de125f0f
DTITLE=Various Artist - Nu Jazz Anthology - The Classics CD2
DYEAR=2007
DGENRE=Jazz
TTITLE0=The Underwolves - Bird Song [Earthbound Remix]
TTITLE1=The Mighty Bop - Feeling Good
TTITLE2=Taxi - Yes It's True
TTITLE3=Nemo - Darkest Day
TTITLE4=Meitz - Can You Live
TTITLE5=Earl Zinger - Who Killed Saturday Night
TTITLE6=Herbie Hancock feat Chaka Khan - The Essence
TTITLE7=Ashley Slater's - Private Sunshine [BigLounge Album Mix]
TTITLE8=Alice Russell - To Know This
TTITLE9=Micatone - That's The Way It Goes
TTITLE10=Hird feat Christoffer Berg - Getting Closer
TTITLE11=Sicania Soul feat Lara Luppi - Life Is A Tree [Live - Take 2]
TTITLE12=Doctor Abstract - Struck On Jazz
TTITLE13=Deyampert feat Clover Frome Amraah 8 - Held Him First
TTITLE14=Platinum - Greatest
EXTD=
EXTT0=
EXTT1=
EXTT2=
EXTT3=
EXTT4=
EXTT5=
EXTT6=
EXTT7=
EXTT8=
EXTT9=
EXTT10=
EXTT11=
EXTT12=
EXTT13=
EXTT14=
PLAYORDER=
